<?xml version="1.0" encoding="utf-8"?>
<!-- Generator: Adobe Illustrator 25.4.1, SVG Export Plug-In . SVG Version: 6.00 Build 0)  -->
<svg version="1.1" id="Layer_1" xmlns="http://www.w3.org/2000/svg" xmlns:xlink="http://www.w3.org/1999/xlink" x="0px" y="0px"
	 viewBox="0 0 57.2 51.2" style="enable-background:new 0 0 57.2 51.2;" xml:space="preserve">
<style type="text/css">
	.st0{fill:#FFFFFF;}
</style>
<path class="st0" d="M52,28.9H7.6c-2.9,0-5.2-1.5-5.2-3.4l0,0c0-1.8,2.4-3.3,5.2-3.3H52c2.8,0,5.1,1.5,5.2,3.3l0,0
	C57.2,27.4,54.9,28.9,52,28.9z"/>
<path class="st0" d="M26,6L5.9,28c0,0-0.1,0.1-0.1,0.1c-1.3,1.3-3.4,1.3-4.8,0l0,0c-1.3-1.4-1.4-3.6-0.1-5L21,1.2
	c0,0,0.1-0.1,0.1-0.1c1.3-1.3,3.4-1.4,4.8-0.1l0,0C27.2,2.4,27.3,4.6,26,6z"/>
<path class="st0" d="M1,23.1L1,23.1c0,0,0.1-0.1,0.1-0.1c1.4-1.3,3.5-1.2,4.7,0.2l20.1,22c1.3,1.5,1.2,3.7-0.1,5l0,0
	c0,0-0.1,0.1-0.1,0.1c-1.4,1.3-3.5,1.2-4.7-0.2l-20.1-22C-0.3,26.7-0.3,24.5,1,23.1z"/>
</svg>
