<svg id="Layer_1" data-name="Layer 1" xmlns="http://www.w3.org/2000/svg" viewBox="0 0 57.21 51.25"><defs><style>.cls-1{fill:#fff;}</style></defs><path class="cls-1" d="M9,30.44H9c.07-1.82,2.39-3.27,5.22-3.27H58.59c2.85,0,5.17,1.45,5.2,3.27h0c0,1.84-2.35,3.33-5.22,3.35H14.22C11.34,33.77,9,32.28,9,30.44Z" transform="translate(-9 -4.85)"/><path class="cls-1" d="M40.33,5.83h0A3.36,3.36,0,0,1,45.18,6l20.1,22A3.71,3.71,0,0,1,65.16,33h0a3.36,3.36,0,0,1-4.85-.13l-20.1-22A3.71,3.71,0,0,1,40.33,5.83Z" transform="translate(-9 -4.85)"/><path class="cls-1" d="M65.28,33,45.18,55a3.36,3.36,0,0,1-4.85.12h0a3.71,3.71,0,0,1-.12-5.05l20.1-22A3.36,3.36,0,0,1,65.16,28h0A3.71,3.71,0,0,1,65.28,33Z" transform="translate(-9 -4.85)"/></svg>