<svg id="Layer_1" data-name="Layer 1" xmlns="http://www.w3.org/2000/svg" viewBox="0 0 73.1 46.4"><defs><style>.cls-1{fill:#071610;}</style></defs><path class="cls-1" d="M3.45,11h0a4.24,4.24,0,0,1,4.2-4.2h64.7a4.24,4.24,0,0,1,4.2,4.2h0a4.24,4.24,0,0,1-4.2,4.2H7.65A4.24,4.24,0,0,1,3.45,11Z" transform="translate(-3.45 -6.8)"/><path class="cls-1" d="M31.45,30h0a4.21,4.21,0,0,1,4.2-4.1H71.37A4.14,4.14,0,0,1,75.55,30h0a4.24,4.24,0,0,1-4.2,4.2H35.65A4.24,4.24,0,0,1,31.45,30Z" transform="translate(-3.45 -6.8)"/><path class="cls-1" d="M31.45,49h0a4.24,4.24,0,0,1,4.2-4.2h35.7a4.24,4.24,0,0,1,4.2,4.2h0a4.24,4.24,0,0,1-4.2,4.2H35.65A4.24,4.24,0,0,1,31.45,49Z" transform="translate(-3.45 -6.8)"/></svg>