<svg id="Layer_1" data-name="Layer 1" xmlns="http://www.w3.org/2000/svg" viewBox="0 0 80 60"><defs><style>.cls-1{fill:#081c15;}</style></defs><path class="cls-1" d="M72.35,15.2H7.65A4.23,4.23,0,0,1,3.45,11h0a4.23,4.23,0,0,1,4.2-4.2h64.7a4.23,4.23,0,0,1,4.2,4.2h0A4.23,4.23,0,0,1,72.35,15.2Z"/><path class="cls-1" d="M44.35,34.2H8.65A4.23,4.23,0,0,1,4.45,30h0a4.14,4.14,0,0,1,4.2-4.1h35.7a4.21,4.21,0,0,1,4.2,4.1h0A4.23,4.23,0,0,1,44.35,34.2Z"/><path class="cls-1" d="M44.35,53.2H8.65A4.23,4.23,0,0,1,4.45,49h0a4.23,4.23,0,0,1,4.2-4.2h35.7a4.23,4.23,0,0,1,4.2,4.2h0A4.23,4.23,0,0,1,44.35,53.2Z"/></svg>